name ./resultDataOpenSim/trcMotMarkerGrf/sub06/grf-04-08.mot
datacolumns 19
datarows 20
range 1.06000000 1.13600000
endheader

                time	     ground_force_vx	     ground_force_vy	     ground_force_vz	     ground_force_px	     ground_force_py	     ground_force_pz	   l_ground_force_vx	   l_ground_force_vy	   l_ground_force_vz	   l_ground_force_px	   l_ground_force_py	   l_ground_force_pz	     ground_torque_x	     ground_torque_y	     ground_torque_z	   l_ground_torque_x	   l_ground_torque_y	   l_ground_torque_z	
          1.06000000	          0.00000000	          0.00000000	          0.00000000	          0.00000000	          0.00000000	          0.00000000	         36.90649002	        519.13556274	         11.81173545	          0.09683965	         -0.07500000	          0.00555940	          0.00000000	          0.00000000	          0.00000000	          0.00000000	         -1.11552659	          0.00000000	
          1.06400000	          0.00000000	          0.00000000	          0.00000000	          0.00000000	          0.00000000	          0.00000000	         39.94910072	        544.55928227	         13.12023553	          0.09715381	         -0.07500000	          0.00582104	          0.00000000	          0.00000000	          0.00000000	          0.00000000	         -1.13263593	          0.00000000	
          1.06800000	          0.00000000	          0.00000000	          0.00000000	          0.00000000	          0.00000000	          0.00000000	         43.48607904	        570.19719073	         14.30274015	          0.09738201	         -0.07500000	          0.00603583	          0.00000000	          0.00000000	          0.00000000	          0.00000000	         -1.15501687	          0.00000000	
          1.07200000	          0.00000000	          0.00000000	          0.00000000	          0.00000000	          0.00000000	          0.00000000	         47.52753895	        595.63624351	         15.32204950	          0.09760039	         -0.07500000	          0.00622070	          0.00000000	          0.00000000	          0.00000000	          0.00000000	         -1.18362346	          0.00000000	
          1.07600000	          0.00000000	          0.00000000	          0.00000000	          0.00000000	          0.00000000	          0.00000000	         52.07298498	        620.54133529	         16.14515308	          0.09785127	         -0.07500000	          0.00638799	          0.00000000	          0.00000000	          0.00000000	          0.00000000	         -1.21914679	          0.00000000	
          1.08000000	          0.00000000	          0.00000000	          0.00000000	          0.00000000	          0.00000000	          0.00000000	         57.10716077	        644.73295204	         16.75400923	          0.09815506	         -0.07500000	          0.00654781	          0.00000000	          0.00000000	          0.00000000	          0.00000000	         -1.26172301	          0.00000000	
          1.08400000	          0.00000000	          0.00000000	          0.00000000	          0.00000000	          0.00000000	          0.00000000	         62.58593794	        668.19490215	         17.16139402	          0.09850767	         -0.07500000	          0.00670672	          0.00000000	          0.00000000	          0.00000000	          0.00000000	         -1.31068068	          0.00000000	
          1.08800000	          0.00000000	          0.00000000	          0.00000000	          0.00000000	          0.00000000	          0.00000000	         68.45076097	        690.96703059	         17.41067667	          0.09888971	         -0.07500000	          0.00687350	          0.00000000	          0.00000000	          0.00000000	          0.00000000	         -1.36457115	          0.00000000	
          1.09200000	          0.00000000	          0.00000000	          0.00000000	          0.00000000	          0.00000000	          0.00000000	         74.66020655	        713.03069684	         17.55982739	          0.09930157	         -0.07500000	          0.00706504	          0.00000000	          0.00000000	          0.00000000	          0.00000000	         -1.42157811	          0.00000000	
          1.09600000	          0.00000000	          0.00000000	          0.00000000	          0.00000000	          0.00000000	          0.00000000	         81.19888986	        734.25764131	         17.65358391	          0.09973781	         -0.07500000	          0.00728513	          0.00000000	          0.00000000	          0.00000000	          0.00000000	         -1.48013148	          0.00000000	
          1.10000000	          0.00000000	          0.00000000	          0.00000000	          0.00000000	          0.00000000	          0.00000000	         88.05468040	        754.41254448	         17.69192549	          0.10019268	         -0.07500000	          0.00753622	          0.00000000	          0.00000000	          0.00000000	          0.00000000	         -1.53936810	          0.00000000	
          1.10400000	          0.00000000	          0.00000000	          0.00000000	          0.00000000	          0.00000000	          0.00000000	         95.19465802	        773.22300889	         17.61978028	          0.10068726	         -0.07500000	          0.00782624	          0.00000000	          0.00000000	          0.00000000	          0.00000000	         -1.59916278	          0.00000000	
          1.10800000	          0.00000000	          0.00000000	          0.00000000	          0.00000000	          0.00000000	          0.00000000	        102.56806133	        790.45071208	         17.35758848	          0.10122917	         -0.07500000	          0.00814414	          0.00000000	          0.00000000	          0.00000000	          0.00000000	         -1.65974970	          0.00000000	
          1.11200000	          0.00000000	          0.00000000	          0.00000000	          0.00000000	          0.00000000	          0.00000000	        110.11790660	        805.89255681	         16.85344211	          0.10183960	         -0.07500000	          0.00848530	          0.00000000	          0.00000000	          0.00000000	          0.00000000	         -1.72123807	          0.00000000	
          1.11600000	          0.00000000	          0.00000000	          0.00000000	          0.00000000	          0.00000000	          0.00000000	        117.77542627	        819.38727805	         16.11404286	          0.10253683	         -0.07500000	          0.00885111	          0.00000000	          0.00000000	          0.00000000	          0.00000000	         -1.78336586	          0.00000000	
          1.12000000	          0.00000000	          0.00000000	          0.00000000	          0.00000000	          0.00000000	          0.00000000	        125.45989856	        830.83571390	         15.19215653	          0.10330180	         -0.07500000	          0.00924251	          0.00000000	          0.00000000	          0.00000000	          0.00000000	         -1.84560120	          0.00000000	
          1.12400000	          0.00000000	          0.00000000	          0.00000000	          0.00000000	          0.00000000	          0.00000000	        133.10146646	        840.14855858	         14.14694285	          0.10409722	         -0.07500000	          0.00964146	          0.00000000	          0.00000000	          0.00000000	          0.00000000	         -1.90741076	          0.00000000	
          1.12800000	          0.00000000	          0.00000000	          0.00000000	          0.00000000	          0.00000000	          0.00000000	        140.64881977	        847.18145301	         13.01261362	          0.10488607	         -0.07500000	          0.01001718	          0.00000000	          0.00000000	          0.00000000	          0.00000000	         -1.96840057	          0.00000000	
          1.13200000	          0.00000000	          0.00000000	          0.00000000	          0.00000000	          0.00000000	          0.00000000	        148.04439210	        851.74969136	         11.79489185	          0.10564939	         -0.07500000	          0.01035396	          0.00000000	          0.00000000	          0.00000000	          0.00000000	         -2.02815274	          0.00000000	
          1.13600000	          0.00000000	          0.00000000	          0.00000000	          0.00000000	          0.00000000	          0.00000000	        155.21123616	        853.67633611	         10.49264525	          0.10639277	         -0.07500000	          0.01065226	          0.00000000	          0.00000000	          0.00000000	          0.00000000	         -2.08582928	          0.00000000	
